# xmcd
#
# Track frame offsets: 
#        150
#        16945
#        29424
#        45129
#        57691
#        73590
#        84060
#        99001
#        116125
#        130361
#        143815
#        158687
#        175462
#        194136
#        209977
#        229541
#        240041
#        256494
#        266658
#        284591
#        296691
#        314916
#        329592
#        346381
#
# Disc length: 4790 seconds
#
# Revision: 0
# Processed by: cddbd v1.5.2PL0 Copyright (c) Steve Scherf et al.
# Submitted via: ExactAudioCopyFreeDBPlugin 1.0
#
DISCID=7112b418
DTITLE=Jan Spálený - Sedmdesat CD2
DYEAR=2012
DGENRE=Blues
TTITLE0=Já se tě nevzám
TTITLE1=Co mi chybí
TTITLE2=Blues s modrýma očima
TTITLE3=Déšť
TTITLE4=Moje Marie netuší
TTITLE5=Sto tisíc modrých sluncí
TTITLE6=Jsi trochu povadlá
TTITLE7=Máš jen nás
TTITLE8=Obyčejný vítr
TTITLE9=Sníh
TTITLE10=ž jsem toho snědl moc
TTITLE11=teď bych to udělal líp
TTITLE12=Myslím na tebe moje milovaná
TTITLE13=Už zrezly bezy
TTITLE14=Stoupá dým
TTITLE15=Aceton blues
TTITLE16=Asi v tom bude nějaký háček
TTITLE17=Bojler Blues
TTITLE18=Špital u sv. Jakuba
TTITLE19=Hádej
TTITLE20=Tak jo
TTITLE21=Mý lasky pouťový
TTITLE22=Mezi břehy
TTITLE23=Bles Nádražní ulice
EXTD=
EXTT0=
EXTT1=
EXTT2=
EXTT3=
EXTT4=
EXTT5=
EXTT6=
EXTT7=
EXTT8=
EXTT9=
EXTT10=
EXTT11=
EXTT12=
EXTT13=
EXTT14=
EXTT15=
EXTT16=
EXTT17=
EXTT18=
EXTT19=
EXTT20=
EXTT21=
EXTT22=
EXTT23=
PLAYORDER=
